<svg xmlns="http://www.w3.org/2000/svg" xmlns:xlink="http://www.w3.org/1999/xlink" width="300" zoomAndPan="magnify" viewBox="0 0 224.87999 225" height="300" preserveAspectRatio="xMidYMid meet" version="1.0"><defs><g/><clipPath id="0d775c71b6"><path d="M 20.578125 52.214844 L 204.730469 52.214844 L 204.730469 172.785156 L 20.578125 172.785156 Z M 20.578125 52.214844 " clip-rule="nonzero"/></clipPath><clipPath id="4864d5468e"><path d="M 31.144531 52.214844 L 193.734375 52.214844 C 199.570312 52.214844 204.304688 56.945312 204.304688 62.785156 L 204.304688 162.214844 C 204.304688 168.054688 199.570312 172.785156 193.734375 172.785156 L 31.144531 172.785156 C 25.308594 172.785156 20.578125 168.054688 20.578125 162.214844 L 20.578125 62.785156 C 20.578125 56.945312 25.308594 52.214844 31.144531 52.214844 Z M 31.144531 52.214844 " clip-rule="nonzero"/></clipPath><clipPath id="1cfd0a70c2"><path d="M 0.578125 0.214844 L 184.371094 0.214844 L 184.371094 120.785156 L 0.578125 120.785156 Z M 0.578125 0.214844 " clip-rule="nonzero"/></clipPath><clipPath id="88128f6244"><path d="M 11.144531 0.214844 L 173.734375 0.214844 C 179.570312 0.214844 184.304688 4.945312 184.304688 10.785156 L 184.304688 110.214844 C 184.304688 116.054688 179.570312 120.785156 173.734375 120.785156 L 11.144531 120.785156 C 5.308594 120.785156 0.578125 116.054688 0.578125 110.214844 L 0.578125 10.785156 C 0.578125 4.945312 5.308594 0.214844 11.144531 0.214844 Z M 11.144531 0.214844 " clip-rule="nonzero"/></clipPath><clipPath id="58052563af"><rect x="0" width="185" y="0" height="121"/></clipPath><clipPath id="48f82357b3"><path d="M 101 23 L 113.828125 23 L 113.828125 59 L 101 59 Z M 101 23 " clip-rule="nonzero"/></clipPath><clipPath id="4517a0f3c4"><path d="M 0.128906 18 L 20 18 L 20 58 L 0.128906 58 Z M 0.128906 18 " clip-rule="nonzero"/></clipPath><clipPath id="f89b22b1ff"><rect x="0" width="114" y="0" height="78"/></clipPath></defs><g clip-path="url(#0d775c71b6)"><g clip-path="url(#4864d5468e)"><g transform="matrix(1, 0, 0, 1, 20, 52)"><g clip-path="url(#58052563af)"><g clip-path="url(#1cfd0a70c2)"><g clip-path="url(#88128f6244)"><path fill="#091329" d="M 0.578125 0.214844 L 184.257812 0.214844 L 184.257812 120.785156 L 0.578125 120.785156 Z M 0.578125 0.214844 " fill-opacity="1" fill-rule="nonzero"/></g></g></g></g></g></g><g transform="matrix(1, 0, 0, 1, 56, 70)"><g clip-path="url(#f89b22b1ff)"><g fill="#000000" fill-opacity="0.302"><g transform="translate(5.373165, 58.927243)"><g><path d="M -2.875 0 L 9.296875 -38.75 L 15.71875 -38.75 L 11.453125 0 L 7.09375 0 L 8.1875 -8.859375 L 4.265625 -8.859375 L 1.609375 0 Z M 6.421875 -16.046875 L 5.59375 -13.34375 L 8.75 -13.34375 L 9.078125 -16.046875 L 11.453125 -33.65625 Z M 6.421875 -16.046875 "/></g></g></g><g fill="#000000" fill-opacity="0.302"><g transform="translate(19.988138, 58.927243)"><g><path d="M 4.09375 0.390625 C 2.4375 0.390625 1.273438 -0.207031 0.609375 -1.40625 C -0.0546875 -2.601562 -0.390625 -4.164062 -0.390625 -6.09375 C -0.390625 -7.414062 -0.269531 -8.867188 -0.03125 -10.453125 C 0.207031 -12.046875 0.515625 -13.707031 0.890625 -15.4375 C 1.703125 -19.207031 2.519531 -22.148438 3.34375 -24.265625 C 4.175781 -26.390625 5.0625 -27.894531 6 -28.78125 C 6.945312 -29.664062 7.972656 -30.109375 9.078125 -30.109375 C 10.660156 -30.109375 11.765625 -29.546875 12.390625 -28.421875 C 13.023438 -27.296875 13.34375 -25.8125 13.34375 -23.96875 C 13.34375 -22.164062 13.117188 -20.117188 12.671875 -17.828125 L 8.6875 -17.828125 C 8.914062 -18.972656 9.117188 -20.109375 9.296875 -21.234375 C 9.484375 -22.359375 9.578125 -23.304688 9.578125 -24.078125 C 9.578125 -25.179688 9.351562 -25.734375 8.90625 -25.734375 C 8.613281 -25.734375 8.300781 -25.429688 7.96875 -24.828125 C 7.632812 -24.222656 7.242188 -23.132812 6.796875 -21.5625 C 6.359375 -19.988281 5.828125 -17.785156 5.203125 -14.953125 C 4.835938 -13.210938 4.492188 -11.503906 4.171875 -9.828125 C 3.859375 -8.148438 3.703125 -6.773438 3.703125 -5.703125 C 3.703125 -4.523438 3.941406 -3.9375 4.421875 -3.9375 C 4.753906 -3.9375 5.066406 -4.175781 5.359375 -4.65625 C 5.660156 -5.132812 5.992188 -6 6.359375 -7.25 C 6.734375 -8.507812 7.160156 -10.300781 7.640625 -12.625 L 11.625 -12.625 C 11 -9.257812 10.304688 -6.625 9.546875 -4.71875 C 8.796875 -2.820312 7.96875 -1.492188 7.0625 -0.734375 C 6.15625 0.015625 5.164062 0.390625 4.09375 0.390625 Z M 4.09375 0.390625 "/></g></g></g><g fill="#000000" fill-opacity="0.302"><g transform="translate(32.111919, 58.927243)"><g><path d="M 4.265625 0 C 1.710938 0 0.4375 -1.160156 0.4375 -3.484375 C 0.4375 -3.960938 0.492188 -4.441406 0.609375 -4.921875 L 4.984375 -25.515625 L 2.65625 -25.515625 L 3.59375 -29.734375 L 5.875 -29.734375 L 6.96875 -34.9375 L 11.40625 -34.9375 L 10.296875 -29.734375 L 12.84375 -29.734375 L 11.90625 -25.515625 L 9.40625 -25.515625 L 5.203125 -5.53125 C 5.160156 -5.382812 5.140625 -5.203125 5.140625 -4.984375 C 5.140625 -4.429688 5.492188 -4.15625 6.203125 -4.15625 L 7.359375 -4.15625 L 6.53125 0 Z M 4.265625 0 "/></g></g></g><g fill="#000000" fill-opacity="0.302"><g transform="translate(42.519545, 58.927243)"><g><path d="M -2.484375 0 L -1.328125 -5.640625 L 3.484375 -5.640625 L 2.328125 0 Z M -2.484375 0 "/></g></g></g><g fill="#000000" fill-opacity="0.302"><g transform="translate(48.664476, 58.927243)"><g/></g></g><g fill="#000000" fill-opacity="0.302"><g transform="translate(55.25228, 58.927243)"><g><path d="M -2 0 L 6.25 -38.75 L 17.265625 -38.75 L 16.21875 -34.046875 L 10.078125 -34.046875 L 7.578125 -22.359375 L 11.953125 -22.359375 L 10.96875 -17.609375 L 6.59375 -17.609375 L 2.828125 0 Z M -2 0 "/></g></g></g><g fill="#000000" fill-opacity="0.302"><g transform="translate(67.985018, 58.927243)"><g><path d="M -2.046875 0 L 6.203125 -38.75 L 10.6875 -38.75 L 2.4375 0 Z M -2.046875 0 "/></g></g></g><g fill="#000000" fill-opacity="0.302"><g transform="translate(74.683543, 58.927243)"><g><path d="M 4.265625 0.390625 C 2.523438 0.390625 1.3125 -0.195312 0.625 -1.375 C -0.0507812 -2.5625 -0.390625 -4.132812 -0.390625 -6.09375 C -0.390625 -7.382812 -0.269531 -8.832031 -0.03125 -10.4375 C 0.207031 -12.039062 0.515625 -13.707031 0.890625 -15.4375 C 1.992188 -20.71875 3.207031 -24.484375 4.53125 -26.734375 C 5.863281 -28.984375 7.488281 -30.109375 9.40625 -30.109375 C 11.144531 -30.109375 12.351562 -29.523438 13.03125 -28.359375 C 13.71875 -27.203125 14.0625 -25.644531 14.0625 -23.6875 C 14.0625 -22.363281 13.941406 -20.898438 13.703125 -19.296875 C 13.460938 -17.691406 13.140625 -16.019531 12.734375 -14.28125 C 11.628906 -9 10.410156 -5.234375 9.078125 -2.984375 C 7.753906 -0.734375 6.148438 0.390625 4.265625 0.390625 Z M 4.59375 -3.9375 C 5.144531 -3.9375 5.695312 -4.726562 6.25 -6.3125 C 6.8125 -7.894531 7.535156 -10.695312 8.421875 -14.71875 C 8.785156 -16.34375 9.113281 -17.992188 9.40625 -19.671875 C 9.707031 -21.359375 9.859375 -22.734375 9.859375 -23.796875 C 9.859375 -25.128906 9.582031 -25.796875 9.03125 -25.796875 C 8.46875 -25.796875 7.910156 -25 7.359375 -23.40625 C 6.804688 -21.820312 6.085938 -19.003906 5.203125 -14.953125 C 4.835938 -13.328125 4.503906 -11.679688 4.203125 -10.015625 C 3.910156 -8.359375 3.765625 -6.992188 3.765625 -5.921875 C 3.765625 -4.597656 4.039062 -3.9375 4.59375 -3.9375 Z M 4.59375 -3.9375 "/></g></g></g><g fill="#000000" fill-opacity="0.302"><g transform="translate(88.302042, 58.927243)"><g><path d="M 1.71875 0.28125 C 0.613281 0.28125 -0.175781 -0.21875 -0.65625 -1.21875 C -1.144531 -2.21875 -1.390625 -3.304688 -1.390625 -4.484375 C -1.390625 -6.398438 -1 -8.125 -0.21875 -9.65625 C 0.550781 -11.1875 1.566406 -12.582031 2.828125 -13.84375 C 3.890625 -14.945312 4.925781 -16.023438 5.9375 -17.078125 C 6.957031 -18.128906 7.804688 -19.234375 8.484375 -20.390625 C 9.171875 -21.554688 9.515625 -22.859375 9.515625 -24.296875 C 9.515625 -24.703125 9.441406 -25.039062 9.296875 -25.3125 C 9.148438 -25.59375 8.875 -25.734375 8.46875 -25.734375 C 7.945312 -25.734375 7.421875 -25.195312 6.890625 -24.125 C 6.359375 -23.0625 5.890625 -21.332031 5.484375 -18.9375 L 1.65625 -18.9375 C 2.25 -22.882812 3.179688 -25.734375 4.453125 -27.484375 C 5.722656 -29.234375 7.207031 -30.109375 8.90625 -30.109375 C 10.863281 -30.109375 12.210938 -29.332031 12.953125 -27.78125 C 13.691406 -26.238281 13.800781 -24.320312 13.28125 -22.03125 L 8.640625 0 L 4.375 0 L 4.765625 -1.9375 C 4.359375 -1.269531 3.894531 -0.734375 3.375 -0.328125 C 2.863281 0.078125 2.3125 0.28125 1.71875 0.28125 Z M 2.9375 -5.375 C 2.9375 -4.257812 3.320312 -3.703125 4.09375 -3.703125 C 4.570312 -3.703125 4.976562 -3.925781 5.3125 -4.375 L 6.203125 -8.640625 L 7.640625 -14.671875 C 7.234375 -14.078125 6.828125 -13.519531 6.421875 -13 C 6.015625 -12.488281 5.609375 -11.957031 5.203125 -11.40625 C 4.609375 -10.59375 4.082031 -9.613281 3.625 -8.46875 C 3.164062 -7.320312 2.9375 -6.289062 2.9375 -5.375 Z M 2.9375 -5.375 "/></g></g></g><g clip-path="url(#48f82357b3)"><g fill="#000000" fill-opacity="0.302"><g transform="translate(100.647259, 58.927243)"><g><path d="M 4.265625 0 C 1.710938 0 0.4375 -1.160156 0.4375 -3.484375 C 0.4375 -3.960938 0.492188 -4.441406 0.609375 -4.921875 L 4.984375 -25.515625 L 2.65625 -25.515625 L 3.59375 -29.734375 L 5.875 -29.734375 L 6.96875 -34.9375 L 11.40625 -34.9375 L 10.296875 -29.734375 L 12.84375 -29.734375 L 11.90625 -25.515625 L 9.40625 -25.515625 L 5.203125 -5.53125 C 5.160156 -5.382812 5.140625 -5.203125 5.140625 -4.984375 C 5.140625 -4.429688 5.492188 -4.15625 6.203125 -4.15625 L 7.359375 -4.15625 L 6.53125 0 Z M 4.265625 0 "/></g></g></g></g><g fill="#000000" fill-opacity="0.502"><g transform="translate(4.555212, 58.288187)"><g><path d="M -2.875 0 L 9.296875 -38.75 L 15.71875 -38.75 L 11.453125 0 L 7.09375 0 L 8.1875 -8.859375 L 4.265625 -8.859375 L 1.609375 0 Z M 6.421875 -16.046875 L 5.59375 -13.34375 L 8.75 -13.34375 L 9.078125 -16.046875 L 11.453125 -33.65625 Z M 6.421875 -16.046875 "/></g></g></g><g fill="#000000" fill-opacity="0.502"><g transform="translate(19.170185, 58.288187)"><g><path d="M 4.09375 0.390625 C 2.4375 0.390625 1.273438 -0.207031 0.609375 -1.40625 C -0.0546875 -2.601562 -0.390625 -4.164062 -0.390625 -6.09375 C -0.390625 -7.414062 -0.269531 -8.867188 -0.03125 -10.453125 C 0.207031 -12.046875 0.515625 -13.707031 0.890625 -15.4375 C 1.703125 -19.207031 2.519531 -22.148438 3.34375 -24.265625 C 4.175781 -26.390625 5.0625 -27.894531 6 -28.78125 C 6.945312 -29.664062 7.972656 -30.109375 9.078125 -30.109375 C 10.660156 -30.109375 11.765625 -29.546875 12.390625 -28.421875 C 13.023438 -27.296875 13.34375 -25.8125 13.34375 -23.96875 C 13.34375 -22.164062 13.117188 -20.117188 12.671875 -17.828125 L 8.6875 -17.828125 C 8.914062 -18.972656 9.117188 -20.109375 9.296875 -21.234375 C 9.484375 -22.359375 9.578125 -23.304688 9.578125 -24.078125 C 9.578125 -25.179688 9.351562 -25.734375 8.90625 -25.734375 C 8.613281 -25.734375 8.300781 -25.429688 7.96875 -24.828125 C 7.632812 -24.222656 7.242188 -23.132812 6.796875 -21.5625 C 6.359375 -19.988281 5.828125 -17.785156 5.203125 -14.953125 C 4.835938 -13.210938 4.492188 -11.503906 4.171875 -9.828125 C 3.859375 -8.148438 3.703125 -6.773438 3.703125 -5.703125 C 3.703125 -4.523438 3.941406 -3.9375 4.421875 -3.9375 C 4.753906 -3.9375 5.066406 -4.175781 5.359375 -4.65625 C 5.660156 -5.132812 5.992188 -6 6.359375 -7.25 C 6.734375 -8.507812 7.160156 -10.300781 7.640625 -12.625 L 11.625 -12.625 C 11 -9.257812 10.304688 -6.625 9.546875 -4.71875 C 8.796875 -2.820312 7.96875 -1.492188 7.0625 -0.734375 C 6.15625 0.015625 5.164062 0.390625 4.09375 0.390625 Z M 4.09375 0.390625 "/></g></g></g><g fill="#000000" fill-opacity="0.502"><g transform="translate(31.293965, 58.288187)"><g><path d="M 4.265625 0 C 1.710938 0 0.4375 -1.160156 0.4375 -3.484375 C 0.4375 -3.960938 0.492188 -4.441406 0.609375 -4.921875 L 4.984375 -25.515625 L 2.65625 -25.515625 L 3.59375 -29.734375 L 5.875 -29.734375 L 6.96875 -34.9375 L 11.40625 -34.9375 L 10.296875 -29.734375 L 12.84375 -29.734375 L 11.90625 -25.515625 L 9.40625 -25.515625 L 5.203125 -5.53125 C 5.160156 -5.382812 5.140625 -5.203125 5.140625 -4.984375 C 5.140625 -4.429688 5.492188 -4.15625 6.203125 -4.15625 L 7.359375 -4.15625 L 6.53125 0 Z M 4.265625 0 "/></g></g></g><g fill="#000000" fill-opacity="0.502"><g transform="translate(41.701591, 58.288187)"><g><path d="M -2.484375 0 L -1.328125 -5.640625 L 3.484375 -5.640625 L 2.328125 0 Z M -2.484375 0 "/></g></g></g><g fill="#000000" fill-opacity="0.502"><g transform="translate(47.846522, 58.288187)"><g/></g></g><g fill="#000000" fill-opacity="0.502"><g transform="translate(54.434327, 58.288187)"><g><path d="M -2 0 L 6.25 -38.75 L 17.265625 -38.75 L 16.21875 -34.046875 L 10.078125 -34.046875 L 7.578125 -22.359375 L 11.953125 -22.359375 L 10.96875 -17.609375 L 6.59375 -17.609375 L 2.828125 0 Z M -2 0 "/></g></g></g><g fill="#000000" fill-opacity="0.502"><g transform="translate(67.167065, 58.288187)"><g><path d="M -2.046875 0 L 6.203125 -38.75 L 10.6875 -38.75 L 2.4375 0 Z M -2.046875 0 "/></g></g></g><g fill="#000000" fill-opacity="0.502"><g transform="translate(73.86559, 58.288187)"><g><path d="M 4.265625 0.390625 C 2.523438 0.390625 1.3125 -0.195312 0.625 -1.375 C -0.0507812 -2.5625 -0.390625 -4.132812 -0.390625 -6.09375 C -0.390625 -7.382812 -0.269531 -8.832031 -0.03125 -10.4375 C 0.207031 -12.039062 0.515625 -13.707031 0.890625 -15.4375 C 1.992188 -20.71875 3.207031 -24.484375 4.53125 -26.734375 C 5.863281 -28.984375 7.488281 -30.109375 9.40625 -30.109375 C 11.144531 -30.109375 12.351562 -29.523438 13.03125 -28.359375 C 13.71875 -27.203125 14.0625 -25.644531 14.0625 -23.6875 C 14.0625 -22.363281 13.941406 -20.898438 13.703125 -19.296875 C 13.460938 -17.691406 13.140625 -16.019531 12.734375 -14.28125 C 11.628906 -9 10.410156 -5.234375 9.078125 -2.984375 C 7.753906 -0.734375 6.148438 0.390625 4.265625 0.390625 Z M 4.59375 -3.9375 C 5.144531 -3.9375 5.695312 -4.726562 6.25 -6.3125 C 6.8125 -7.894531 7.535156 -10.695312 8.421875 -14.71875 C 8.785156 -16.34375 9.113281 -17.992188 9.40625 -19.671875 C 9.707031 -21.359375 9.859375 -22.734375 9.859375 -23.796875 C 9.859375 -25.128906 9.582031 -25.796875 9.03125 -25.796875 C 8.46875 -25.796875 7.910156 -25 7.359375 -23.40625 C 6.804688 -21.820312 6.085938 -19.003906 5.203125 -14.953125 C 4.835938 -13.328125 4.503906 -11.679688 4.203125 -10.015625 C 3.910156 -8.359375 3.765625 -6.992188 3.765625 -5.921875 C 3.765625 -4.597656 4.039062 -3.9375 4.59375 -3.9375 Z M 4.59375 -3.9375 "/></g></g></g><g fill="#000000" fill-opacity="0.502"><g transform="translate(87.484089, 58.288187)"><g><path d="M 1.71875 0.28125 C 0.613281 0.28125 -0.175781 -0.21875 -0.65625 -1.21875 C -1.144531 -2.21875 -1.390625 -3.304688 -1.390625 -4.484375 C -1.390625 -6.398438 -1 -8.125 -0.21875 -9.65625 C 0.550781 -11.1875 1.566406 -12.582031 2.828125 -13.84375 C 3.890625 -14.945312 4.925781 -16.023438 5.9375 -17.078125 C 6.957031 -18.128906 7.804688 -19.234375 8.484375 -20.390625 C 9.171875 -21.554688 9.515625 -22.859375 9.515625 -24.296875 C 9.515625 -24.703125 9.441406 -25.039062 9.296875 -25.3125 C 9.148438 -25.59375 8.875 -25.734375 8.46875 -25.734375 C 7.945312 -25.734375 7.421875 -25.195312 6.890625 -24.125 C 6.359375 -23.0625 5.890625 -21.332031 5.484375 -18.9375 L 1.65625 -18.9375 C 2.25 -22.882812 3.179688 -25.734375 4.453125 -27.484375 C 5.722656 -29.234375 7.207031 -30.109375 8.90625 -30.109375 C 10.863281 -30.109375 12.210938 -29.332031 12.953125 -27.78125 C 13.691406 -26.238281 13.800781 -24.320312 13.28125 -22.03125 L 8.640625 0 L 4.375 0 L 4.765625 -1.9375 C 4.359375 -1.269531 3.894531 -0.734375 3.375 -0.328125 C 2.863281 0.078125 2.3125 0.28125 1.71875 0.28125 Z M 2.9375 -5.375 C 2.9375 -4.257812 3.320312 -3.703125 4.09375 -3.703125 C 4.570312 -3.703125 4.976562 -3.925781 5.3125 -4.375 L 6.203125 -8.640625 L 7.640625 -14.671875 C 7.234375 -14.078125 6.828125 -13.519531 6.421875 -13 C 6.015625 -12.488281 5.609375 -11.957031 5.203125 -11.40625 C 4.609375 -10.59375 4.082031 -9.613281 3.625 -8.46875 C 3.164062 -7.320312 2.9375 -6.289062 2.9375 -5.375 Z M 2.9375 -5.375 "/></g></g></g><g fill="#000000" fill-opacity="0.502"><g transform="translate(99.829306, 58.288187)"><g><path d="M 4.265625 0 C 1.710938 0 0.4375 -1.160156 0.4375 -3.484375 C 0.4375 -3.960938 0.492188 -4.441406 0.609375 -4.921875 L 4.984375 -25.515625 L 2.65625 -25.515625 L 3.59375 -29.734375 L 5.875 -29.734375 L 6.96875 -34.9375 L 11.40625 -34.9375 L 10.296875 -29.734375 L 12.84375 -29.734375 L 11.90625 -25.515625 L 9.40625 -25.515625 L 5.203125 -5.53125 C 5.160156 -5.382812 5.140625 -5.203125 5.140625 -4.984375 C 5.140625 -4.429688 5.492188 -4.15625 6.203125 -4.15625 L 7.359375 -4.15625 L 6.53125 0 Z M 4.265625 0 "/></g></g></g><g clip-path="url(#4517a0f3c4)"><g fill="#ffffff" fill-opacity="1"><g transform="translate(3.737255, 57.649131)"><g><path d="M -2.875 0 L 9.296875 -38.75 L 15.71875 -38.75 L 11.453125 0 L 7.09375 0 L 8.1875 -8.859375 L 4.265625 -8.859375 L 1.609375 0 Z M 6.421875 -16.046875 L 5.59375 -13.34375 L 8.75 -13.34375 L 9.078125 -16.046875 L 11.453125 -33.65625 Z M 6.421875 -16.046875 "/></g></g></g></g><g fill="#ffffff" fill-opacity="1"><g transform="translate(18.352228, 57.649131)"><g><path d="M 4.09375 0.390625 C 2.4375 0.390625 1.273438 -0.207031 0.609375 -1.40625 C -0.0546875 -2.601562 -0.390625 -4.164062 -0.390625 -6.09375 C -0.390625 -7.414062 -0.269531 -8.867188 -0.03125 -10.453125 C 0.207031 -12.046875 0.515625 -13.707031 0.890625 -15.4375 C 1.703125 -19.207031 2.519531 -22.148438 3.34375 -24.265625 C 4.175781 -26.390625 5.0625 -27.894531 6 -28.78125 C 6.945312 -29.664062 7.972656 -30.109375 9.078125 -30.109375 C 10.660156 -30.109375 11.765625 -29.546875 12.390625 -28.421875 C 13.023438 -27.296875 13.34375 -25.8125 13.34375 -23.96875 C 13.34375 -22.164062 13.117188 -20.117188 12.671875 -17.828125 L 8.6875 -17.828125 C 8.914062 -18.972656 9.117188 -20.109375 9.296875 -21.234375 C 9.484375 -22.359375 9.578125 -23.304688 9.578125 -24.078125 C 9.578125 -25.179688 9.351562 -25.734375 8.90625 -25.734375 C 8.613281 -25.734375 8.300781 -25.429688 7.96875 -24.828125 C 7.632812 -24.222656 7.242188 -23.132812 6.796875 -21.5625 C 6.359375 -19.988281 5.828125 -17.785156 5.203125 -14.953125 C 4.835938 -13.210938 4.492188 -11.503906 4.171875 -9.828125 C 3.859375 -8.148438 3.703125 -6.773438 3.703125 -5.703125 C 3.703125 -4.523438 3.941406 -3.9375 4.421875 -3.9375 C 4.753906 -3.9375 5.066406 -4.175781 5.359375 -4.65625 C 5.660156 -5.132812 5.992188 -6 6.359375 -7.25 C 6.734375 -8.507812 7.160156 -10.300781 7.640625 -12.625 L 11.625 -12.625 C 11 -9.257812 10.304688 -6.625 9.546875 -4.71875 C 8.796875 -2.820312 7.96875 -1.492188 7.0625 -0.734375 C 6.15625 0.015625 5.164062 0.390625 4.09375 0.390625 Z M 4.09375 0.390625 "/></g></g></g><g fill="#ffffff" fill-opacity="1"><g transform="translate(30.476008, 57.649131)"><g><path d="M 4.265625 0 C 1.710938 0 0.4375 -1.160156 0.4375 -3.484375 C 0.4375 -3.960938 0.492188 -4.441406 0.609375 -4.921875 L 4.984375 -25.515625 L 2.65625 -25.515625 L 3.59375 -29.734375 L 5.875 -29.734375 L 6.96875 -34.9375 L 11.40625 -34.9375 L 10.296875 -29.734375 L 12.84375 -29.734375 L 11.90625 -25.515625 L 9.40625 -25.515625 L 5.203125 -5.53125 C 5.160156 -5.382812 5.140625 -5.203125 5.140625 -4.984375 C 5.140625 -4.429688 5.492188 -4.15625 6.203125 -4.15625 L 7.359375 -4.15625 L 6.53125 0 Z M 4.265625 0 "/></g></g></g><g fill="#ffffff" fill-opacity="1"><g transform="translate(40.883634, 57.649131)"><g><path d="M -2.484375 0 L -1.328125 -5.640625 L 3.484375 -5.640625 L 2.328125 0 Z M -2.484375 0 "/></g></g></g><g fill="#ffffff" fill-opacity="1"><g transform="translate(47.028565, 57.649131)"><g/></g></g><g fill="#ffffff" fill-opacity="1"><g transform="translate(53.616369, 57.649131)"><g><path d="M -2 0 L 6.25 -38.75 L 17.265625 -38.75 L 16.21875 -34.046875 L 10.078125 -34.046875 L 7.578125 -22.359375 L 11.953125 -22.359375 L 10.96875 -17.609375 L 6.59375 -17.609375 L 2.828125 0 Z M -2 0 "/></g></g></g><g fill="#ffffff" fill-opacity="1"><g transform="translate(66.349108, 57.649131)"><g><path d="M -2.046875 0 L 6.203125 -38.75 L 10.6875 -38.75 L 2.4375 0 Z M -2.046875 0 "/></g></g></g><g fill="#ffffff" fill-opacity="1"><g transform="translate(73.047633, 57.649131)"><g><path d="M 4.265625 0.390625 C 2.523438 0.390625 1.3125 -0.195312 0.625 -1.375 C -0.0507812 -2.5625 -0.390625 -4.132812 -0.390625 -6.09375 C -0.390625 -7.382812 -0.269531 -8.832031 -0.03125 -10.4375 C 0.207031 -12.039062 0.515625 -13.707031 0.890625 -15.4375 C 1.992188 -20.71875 3.207031 -24.484375 4.53125 -26.734375 C 5.863281 -28.984375 7.488281 -30.109375 9.40625 -30.109375 C 11.144531 -30.109375 12.351562 -29.523438 13.03125 -28.359375 C 13.71875 -27.203125 14.0625 -25.644531 14.0625 -23.6875 C 14.0625 -22.363281 13.941406 -20.898438 13.703125 -19.296875 C 13.460938 -17.691406 13.140625 -16.019531 12.734375 -14.28125 C 11.628906 -9 10.410156 -5.234375 9.078125 -2.984375 C 7.753906 -0.734375 6.148438 0.390625 4.265625 0.390625 Z M 4.59375 -3.9375 C 5.144531 -3.9375 5.695312 -4.726562 6.25 -6.3125 C 6.8125 -7.894531 7.535156 -10.695312 8.421875 -14.71875 C 8.785156 -16.34375 9.113281 -17.992188 9.40625 -19.671875 C 9.707031 -21.359375 9.859375 -22.734375 9.859375 -23.796875 C 9.859375 -25.128906 9.582031 -25.796875 9.03125 -25.796875 C 8.46875 -25.796875 7.910156 -25 7.359375 -23.40625 C 6.804688 -21.820312 6.085938 -19.003906 5.203125 -14.953125 C 4.835938 -13.328125 4.503906 -11.679688 4.203125 -10.015625 C 3.910156 -8.359375 3.765625 -6.992188 3.765625 -5.921875 C 3.765625 -4.597656 4.039062 -3.9375 4.59375 -3.9375 Z M 4.59375 -3.9375 "/></g></g></g><g fill="#ffffff" fill-opacity="1"><g transform="translate(86.666132, 57.649131)"><g><path d="M 1.71875 0.28125 C 0.613281 0.28125 -0.175781 -0.21875 -0.65625 -1.21875 C -1.144531 -2.21875 -1.390625 -3.304688 -1.390625 -4.484375 C -1.390625 -6.398438 -1 -8.125 -0.21875 -9.65625 C 0.550781 -11.1875 1.566406 -12.582031 2.828125 -13.84375 C 3.890625 -14.945312 4.925781 -16.023438 5.9375 -17.078125 C 6.957031 -18.128906 7.804688 -19.234375 8.484375 -20.390625 C 9.171875 -21.554688 9.515625 -22.859375 9.515625 -24.296875 C 9.515625 -24.703125 9.441406 -25.039062 9.296875 -25.3125 C 9.148438 -25.59375 8.875 -25.734375 8.46875 -25.734375 C 7.945312 -25.734375 7.421875 -25.195312 6.890625 -24.125 C 6.359375 -23.0625 5.890625 -21.332031 5.484375 -18.9375 L 1.65625 -18.9375 C 2.25 -22.882812 3.179688 -25.734375 4.453125 -27.484375 C 5.722656 -29.234375 7.207031 -30.109375 8.90625 -30.109375 C 10.863281 -30.109375 12.210938 -29.332031 12.953125 -27.78125 C 13.691406 -26.238281 13.800781 -24.320312 13.28125 -22.03125 L 8.640625 0 L 4.375 0 L 4.765625 -1.9375 C 4.359375 -1.269531 3.894531 -0.734375 3.375 -0.328125 C 2.863281 0.078125 2.3125 0.28125 1.71875 0.28125 Z M 2.9375 -5.375 C 2.9375 -4.257812 3.320312 -3.703125 4.09375 -3.703125 C 4.570312 -3.703125 4.976562 -3.925781 5.3125 -4.375 L 6.203125 -8.640625 L 7.640625 -14.671875 C 7.234375 -14.078125 6.828125 -13.519531 6.421875 -13 C 6.015625 -12.488281 5.609375 -11.957031 5.203125 -11.40625 C 4.609375 -10.59375 4.082031 -9.613281 3.625 -8.46875 C 3.164062 -7.320312 2.9375 -6.289062 2.9375 -5.375 Z M 2.9375 -5.375 "/></g></g></g><g fill="#ffffff" fill-opacity="1"><g transform="translate(99.011349, 57.649131)"><g><path d="M 4.265625 0 C 1.710938 0 0.4375 -1.160156 0.4375 -3.484375 C 0.4375 -3.960938 0.492188 -4.441406 0.609375 -4.921875 L 4.984375 -25.515625 L 2.65625 -25.515625 L 3.59375 -29.734375 L 5.875 -29.734375 L 6.96875 -34.9375 L 11.40625 -34.9375 L 10.296875 -29.734375 L 12.84375 -29.734375 L 11.90625 -25.515625 L 9.40625 -25.515625 L 5.203125 -5.53125 C 5.160156 -5.382812 5.140625 -5.203125 5.140625 -4.984375 C 5.140625 -4.429688 5.492188 -4.15625 6.203125 -4.15625 L 7.359375 -4.15625 L 6.53125 0 Z M 4.265625 0 "/></g></g></g></g></g></svg>